<?xml version="1.0" encoding="iso-8859-1"?>
<!-- Generator: Adobe Illustrator 19.0.0, SVG Export Plug-In . SVG Version: 6.00 Build 0)  -->
<svg version="1.1" id="Layer_1" xmlns="http://www.w3.org/2000/svg" xmlns:xlink="http://www.w3.org/1999/xlink" x="0px" y="0px"
	 viewBox="0 0 512 512" style="enable-background:new 0 0 512 512;" xml:space="preserve">
<circle style="fill:#FC6F58;" cx="256" cy="256" r="256"/>
<path style="fill:#F1543F;" d="M511.957,259.389L395.785,143.217L269.91,204.059l-21.345,27.195l41.81,41.81l-6.409,7.895
	l-59.799-59.799l-68.725,92.303l-54.724,62.783l134.949,134.949c6.709,0.528,13.49,0.803,20.335,0.803
	C396.252,512,510.14,399.21,511.957,259.389z"/>
<path style="fill:#FCD786;" d="M414.732,185.709c0-39.015-42.172-70.644-94.193-70.644s-94.191,31.629-94.191,70.644
	c0,29.574,24.24,54.889,58.623,65.415c-1.283,19.44-13.667,34.842-13.667,34.842c26.595-5.503,41.987-17.267,50.871-29.644
	C373.438,255.666,414.732,224.315,414.732,185.709z"/>
<path style="fill:#FFD15D;" d="M320.934,115.072v142.895c0.421-0.546,0.845-1.095,1.239-1.645
	c51.264-0.657,92.558-32.008,92.558-70.613C414.732,146.794,372.774,115.233,320.934,115.072z"/>
<path style="fill:#324A5E;" d="M100.716,376.248c0-49.116,39.815-88.931,88.931-88.931s88.931,39.815,88.931,88.931H100.716z"/>
<path style="fill:#2B3B4E;" d="M189.647,287.316c-0.198,0-0.393,0.014-0.591,0.016v88.916h89.521
	C278.576,327.132,238.761,287.316,189.647,287.316z"/>
<circle style="fill:#F4E3C3;" cx="189.647" cy="258.448" r="50.817"/>
<path style="fill:#FED8B2;" d="M189.647,207.625c-0.198,0-0.393,0.012-0.591,0.016v101.605c0.198,0.002,0.393,0.016,0.591,0.016
	c28.065,0,50.817-22.752,50.817-50.817C240.464,230.376,217.712,207.625,189.647,207.625z"/>
<g>
</g>
<g>
</g>
<g>
</g>
<g>
</g>
<g>
</g>
<g>
</g>
<g>
</g>
<g>
</g>
<g>
</g>
<g>
</g>
<g>
</g>
<g>
</g>
<g>
</g>
<g>
</g>
<g>
</g>
</svg>
